<svg xmlns="http://www.w3.org/2000/svg" viewBox="0 0 448 286.3">
  <defs>
    <style>
      .cls-1 {
        fill: none;
        stroke: #fff;
        stroke-miterlimit: 10;
        stroke-width: 19px;
      }

      .cls-2 {
        fill: #fff;
      }
    </style>
  </defs>
  <title>computer_1</title>
  <g id="Layer_2" data-name="Layer 2">
    <g id="Layer_1-2" data-name="Layer 1">
      <path class="cls-1" d="M73.5,9.5h301a12,12,0,0,1,12,12V233a3,3,0,0,1-3,3H64.5a3,3,0,0,1-3-3V21.5a12,12,0,0,1,12-12Z"/>
      <path class="cls-2" d="M448,263.3v11a12,12,0,0,1-12,12H12a12,12,0,0,1-12-12v-11a2.9,2.9,0,0,1,3-3H196v3.5a7.1,7.1,0,0,0,7,7h42a7.1,7.1,0,0,0,7-7v-3.5H445A2.9,2.9,0,0,1,448,263.3Z"/>
    </g>
  </g>
</svg>
