<svg xmlns="http://www.w3.org/2000/svg" viewBox="0 0 383.6 237">
  <defs>
    <style>
      .cls-1 {
        fill: #fff;
      }
    </style>
  </defs>
  <title>presentation</title>
  <g id="Layer_2" data-name="Layer 2">
    <g id="Layer_1-2" data-name="Layer 1">
      <path class="cls-1" d="M349,0H12A12,12,0,0,0,0,12V225a12,12,0,0,0,12,12H349a12,12,0,0,0,12-12V120l-15,15v85.9H15V16.1H346V116.5l8.7-8.6a6.5,6.5,0,0,1,6.3-1.7V12A12,12,0,0,0,349,0Z"/>
      <path class="cls-1" d="M35.5,33V204h290V155.8l-7.5,7.5a6.5,6.5,0,0,1-4.6,1.9,6.2,6.2,0,0,1-4.6-1.9,6.4,6.4,0,0,1,0-9.2l16.7-16.7V33ZM266.4,168.1a4.3,4.3,0,0,1-1.9.4,5.5,5.5,0,0,1-5.1-3.6c-1.4-3-15.6-19.9-34.5-38.3C200.5,103,185.7,94,180,93.5h-.4c-.3.7-1.1,3.6.5,12.5s4,16.1,6.5,24.5c5,17.1,7.3,25.5,4.7,30.4a7.6,7.6,0,0,1-4.3,3.4c-5.8,1.6-16,.4-43.5-24.3-19.1-17.1-39.4-39-53.1-54.3a5.5,5.5,0,1,1,8.2-7.4c13.5,15.2,33.5,36.8,52.2,53.5s26.5,20.3,30.4,21.5c-.7-4.6-3.2-13.1-5.2-19.7-6.9-23.7-11-39.7-4.8-47.3a10.9,10.9,0,0,1,9.8-3.8c10.5,1,28,13.4,52.1,36.8,15.9,15.5,34.4,35.9,36.5,41.8A5.3,5.3,0,0,1,266.4,168.1Z"/>
      <path class="cls-1" d="M375.7,94.9a26.7,26.7,0,0,0-14.6-7.5,21.8,21.8,0,0,0-4.4-.4,27.8,27.8,0,0,0-10.6,2.1,25.3,25.3,0,0,0-8.5,5.8L294.5,138a27,27,0,0,0,0,38.1,26.7,26.7,0,0,0,19.1,7.9,27.3,27.3,0,0,0,11.9-2.7.1.1,0,0,1,.1-.1,25.1,25.1,0,0,0,7.1-5.1l43-43A26.9,26.9,0,0,0,375.7,94.9ZM364,117.3l-2.9,2.9-35.5,35.5h-.1l-7.5,7.5a6.5,6.5,0,0,1-4.6,1.9,6.2,6.2,0,0,1-4.6-1.9,6.4,6.4,0,0,1,0-9.2l46-46a6.7,6.7,0,0,1,9.2,0A6.6,6.6,0,0,1,364,117.3Z"/>
    </g>
  </g>
</svg>
